<mxfile host="app.diagrams.net" modified="2023-12-02T14:37:16.192Z" agent="Mozilla/5.0 (Windows NT 10.0; Win64; x64; rv:120.0) Gecko/20100101 Firefox/120.0" version="22.1.5" etag="iGHgbroJgXqvbJp0t0kw" type="github">
  <diagram name="第 1 页" id="4_HjofXp4LLqWXHitChz">
    <mxGraphModel>
      <root>
        <mxCell id="0" />
        <mxCell id="1" parent="0" />
      </root>
    </mxGraphModel>
  </diagram>
</mxfile>
